<svg viewBox="0 0 120 100" xmlns="http://www.w3.org/2000/svg">
  <rect x="18" y="14" width="84" height="72" rx="12" fill="#586170" opacity=".18"/>
  <rect x="26" y="22" width="68" height="56" rx="9" fill="#ffffff" stroke="#c7ccd3"/>
  <rect x="40" y="48" width="15" height="18" rx="3" fill="#eef1f4" stroke="#586170" stroke-width="2.2"/>
  <path d="M55 52 h9 q5 0 5 4.5 q0 2 -1.5 3 q1.5 1 1.5 3.5 q0 2 -1.5 3 q1.3 1 1.3 3 q0 3.5 -4.3 3.5 h-9.5 z" fill="#eef1f4" stroke="#586170" stroke-width="2" stroke-linejoin="round"/>
  <path d="M57 52 l3.5 -9 q1.8 -2.6 3.6 -.8 q1.8 1.8 0 4.5 l-2.6 5.3" fill="none" stroke="#586170" stroke-width="2" stroke-linecap="round" stroke-linejoin="round"/>
  <circle cx="84" cy="68" r="10" fill="#2e8b57"/>
  <path d="M79.6 68.2 l3 3 l6.4 -7.2" fill="none" stroke="#fff" stroke-width="2.3" stroke-linecap="round" stroke-linejoin="round"/>
</svg>
